<?xml version="1.0" standalone="no"?>
<!DOCTYPE svg PUBLIC "-//W3C//DTD SVG 20010904//EN"
 "http://www.w3.org/TR/2001/REC-SVG-20010904/DTD/svg10.dtd">
<svg version="1.0" xmlns="http://www.w3.org/2000/svg"
 width="512.000000pt" height="512.000000pt" viewBox="0 0 512.000000 512.000000"
 preserveAspectRatio="xMidYMid meet">

<g transform="translate(0.000000,512.000000) scale(0.100000,-0.100000)"
fill="#000000" stroke="none">
<path d="M953 4829 c-166 -19 -321 -96 -444 -218 -127 -127 -198 -275 -219
-457 -12 -112 -13 -639 0 -759 19 -185 87 -325 225 -461 78 -78 106 -99 186
-137 177 -86 134 -82 914 -82 659 0 691 1 718 19 15 10 38 33 50 50 l22 31 0
690 c0 780 4 737 -82 914 -38 81 -58 108 -137 185 -140 140 -271 204 -464 226
-103 12 -666 11 -769 -1z m828 -319 c125 -38 217 -117 277 -239 l37 -75 3
-588 3 -589 -589 3 -588 3 -75 37 c-122 60 -201 152 -239 277 -18 58 -20 94
-20 436 0 408 3 435 63 538 29 49 122 139 171 164 94 49 119 52 517 52 347 1
382 -1 440 -19z"/>
<path d="M3383 4830 c-250 -27 -476 -185 -589 -415 -82 -168 -79 -131 -79
-912 0 -683 0 -692 21 -719 11 -15 33 -37 48 -48 27 -21 36 -21 719 -21 l692
0 79 23 c136 39 229 95 331 197 139 139 203 270 225 463 13 114 13 642 0 756
-13 111 -49 220 -102 311 -49 84 -180 216 -261 264 -81 48 -208 89 -312 101
-102 11 -662 11 -772 0z m818 -316 c80 -24 126 -50 187 -107 63 -61 97 -115
123 -198 17 -55 19 -97 19 -434 0 -342 -2 -378 -20 -436 -38 -125 -117 -217
-239 -277 l-75 -37 -588 -3 -589 -3 3 589 3 588 37 75 c59 120 151 200 276
240 51 16 98 18 433 18 317 1 384 -2 430 -15z"/>
<path d="M929 2399 c-157 -23 -293 -93 -415 -214 -136 -135 -205 -275 -224
-460 -13 -120 -12 -647 0 -759 21 -182 92 -330 219 -457 131 -130 277 -199
472 -220 66 -7 225 -9 443 -6 299 4 350 7 412 25 267 74 469 273 546 538 l23
79 0 690 0 690 -22 31 c-12 17 -35 40 -50 50 -27 18 -60 19 -688 20 -363 1
-685 -2 -716 -7z m1169 -887 l-3 -588 -37 -75 c-60 -122 -152 -201 -277 -239
-58 -18 -94 -20 -436 -20 -338 0 -379 2 -434 19 -109 34 -222 125 -269 217
-49 97 -52 124 -52 520 0 341 2 377 20 435 44 144 148 250 295 301 45 16 106
17 623 18 l573 0 -3 -588z"/>
<path d="M2805 2396 c-41 -18 -83 -69 -90 -109 -3 -18 -5 -333 -3 -702 4 -663
4 -671 27 -745 41 -137 95 -225 201 -330 108 -108 182 -153 325 -196 88 -26
96 -27 431 -32 389 -5 505 4 631 47 116 40 184 83 279 176 135 133 203 278
225 476 7 65 9 226 6 443 -5 379 -9 405 -76 551 -101 217 -305 374 -548 421
-106 20 -1362 20 -1408 0z m1466 -338 c122 -60 201 -152 239 -277 18 -58 20
-94 20 -435 0 -396 -3 -423 -52 -520 -27 -53 -112 -142 -166 -173 -101 -60
-130 -63 -537 -63 -342 0 -378 2 -436 20 -125 38 -217 117 -277 239 l-37 75
-3 588 -3 589 589 -3 588 -3 75 -37z"/>
</g>
</svg>
